<svg width="2243" height="736" viewBox="0 0 2243 736" fill="none" xmlns="http://www.w3.org/2000/svg">
<path fill-rule="evenodd" clip-rule="evenodd" d="M0.588379 313.723C0.588379 262.373 0.588379 211.728 0.588379 160.378C1.99521 111.843 27.3181 79.4858 54.0478 51.3493C95.5492 11.2547 157.45 -2.81358 232.011 0.703491C397.314 -7.73747 527.445 153.344 421.23 303.875C421.23 304.578 421.23 304.578 421.23 305.282C542.92 384.767 564.726 559.917 461.324 661.912C403.644 714.668 345.964 737.881 262.258 735.067C224.977 735.067 187.696 734.364 150.415 734.364L55.4546 733.66C15.3601 730.847 -0.115035 711.855 1.99521 661.912V541.629L0.588379 313.723Z" fill="url(#paint0_linear_10_6)"/>
<path fill-rule="evenodd" clip-rule="evenodd" d="M421.23 304.578C391.686 285.586 356.516 272.221 316.421 266.594C158.856 251.119 18.1736 346.079 1.99512 541.628L2.69853 667.539C3.40194 693.566 6.2156 703.413 18.877 711.854C31.5385 718.185 41.3863 724.516 62.4887 723.109C96.2525 718.185 130.72 713.261 164.484 707.634C339.634 671.056 435.298 501.534 421.23 303.875V304.578Z" fill="url(#paint1_linear_10_6)"/>
<path d="M678.829 673.05V397.749H774.244C795.746 397.749 814.112 404.533 829.343 418.099C844.573 431.538 852.188 447.729 852.188 466.671C852.188 481.389 847.709 494.572 838.75 506.219C829.791 517.866 818.656 524.969 805.345 527.529C822.623 529.32 837.15 536.872 848.925 550.182C860.828 563.493 866.779 579.172 866.779 597.218C866.779 618.336 858.908 636.254 843.165 650.972C827.551 665.691 808.545 673.05 786.147 673.05H678.829ZM708.203 517.738H773.476C787.043 517.738 798.562 513.194 808.033 504.107C817.504 494.892 822.239 483.693 822.239 470.51C822.239 458.223 817.44 447.792 807.841 439.217C798.37 430.514 786.915 426.163 773.476 426.163H708.203V517.738ZM708.203 644.829H784.611C799.458 644.829 811.808 639.902 821.663 630.047C831.518 620.192 836.446 608.033 836.446 593.57C836.446 579.236 831.454 567.141 821.471 557.286C811.616 547.431 799.458 542.503 784.995 542.503H708.203V644.829ZM922.069 398.517C927.573 398.517 932.436 400.565 936.66 404.661C940.884 408.756 942.995 413.556 942.995 419.059C942.995 424.691 940.884 429.618 936.66 433.842C932.436 437.937 927.573 439.985 922.069 439.985C916.438 439.985 911.639 437.937 907.671 433.842C903.703 429.746 901.719 424.819 901.719 419.059C901.719 413.556 903.703 408.756 907.671 404.661C911.639 400.565 916.438 398.517 922.069 398.517ZM907.479 482.029H936.276V673.05H907.479V482.029ZM1143.04 482.029V503.147L1015.56 646.365L1143.42 645.981V673.05H976.4V651.356L1104.07 508.331L984.655 508.714V482.029H1143.04ZM1273.59 417.523C1261.68 417.523 1251.83 421.427 1244.02 429.234C1236.21 437.042 1232.31 447.665 1232.31 461.103V482.029H1286.07V508.714H1232.31V673.05H1203.9V508.714H1165.89V482.029H1203.9V460.335C1203.9 438.833 1209.98 421.939 1222.14 409.652C1234.29 397.365 1250.23 391.222 1269.94 391.222C1276.59 391.222 1282.67 392.246 1288.18 394.294L1286.07 419.443C1282.23 418.163 1278.07 417.523 1273.59 417.523ZM1341.36 398.517C1346.86 398.517 1351.72 400.565 1355.95 404.661C1360.17 408.756 1362.28 413.556 1362.28 419.059C1362.28 424.691 1360.17 429.618 1355.95 433.842C1351.72 437.937 1346.86 439.985 1341.36 439.985C1335.72 439.985 1330.93 437.937 1326.96 433.842C1322.99 429.746 1321.01 424.819 1321.01 419.059C1321.01 413.556 1322.99 408.756 1326.96 404.661C1330.93 400.565 1335.72 398.517 1341.36 398.517ZM1326.77 482.029H1355.56V673.05H1326.77V482.029ZM1506.08 477.998C1529.88 477.998 1548.95 485.741 1563.29 501.227C1577.62 516.714 1584.79 537.32 1584.79 563.045V673.05H1555.99V566.885C1555.99 548.455 1550.87 533.736 1540.63 522.729C1530.39 511.594 1516.89 506.027 1500.12 506.027C1487.45 506.027 1475.55 509.098 1464.42 515.242C1453.41 521.257 1445.03 529.448 1439.27 539.815V673.05H1410.47V482.029H1439.27V511.786C1445.54 501.419 1454.69 493.228 1466.72 487.213C1478.88 481.069 1492 477.998 1506.08 477.998ZM1843.39 673.05H1808.45L1730.89 556.71L1653.52 673.05H1618.96L1713.61 530.792L1625.3 397.749H1660.62L1731.46 504.299L1802.11 397.749H1836.67L1748.74 530.408L1843.39 673.05ZM1856.63 397.749H2037.1V419.059L1916.34 673.05H1883.32L2001.58 426.163H1856.63V397.749ZM2102.95 406.197C2117.28 398.005 2132.83 393.91 2149.6 393.91C2166.36 393.91 2181.85 398.005 2196.06 406.197C2210.26 414.26 2221.53 425.331 2229.84 439.409C2238.16 453.36 2242.32 468.59 2242.32 485.101C2242.32 494.828 2240.28 505.771 2236.18 517.93C2232.21 529.96 2226.52 541.927 2219.09 553.83L2144.8 673.05H2111.01L2176.28 569.956C2165.27 573.412 2155.04 575.14 2145.56 575.14C2130.08 575.14 2115.49 571.236 2101.79 563.429C2088.23 555.622 2077.28 544.807 2068.96 530.984C2060.77 517.034 2056.68 501.739 2056.68 485.101C2056.68 468.59 2060.84 453.36 2069.16 439.409C2077.48 425.331 2088.74 414.26 2102.95 406.197ZM2195.1 540.199C2207.13 519.849 2213.14 501.611 2213.14 485.485C2213.14 468.078 2206.93 453.168 2194.52 440.753C2182.11 428.338 2167.13 422.131 2149.6 422.131C2131.93 422.131 2116.83 428.402 2104.29 440.945C2091.75 453.36 2085.47 468.206 2085.47 485.485C2085.47 502.763 2091.87 517.802 2104.67 530.6C2117.47 543.271 2132.57 549.606 2149.98 549.606C2166.36 549.606 2181.4 546.471 2195.1 540.199Z" fill="#FEFEFE"/>
<defs>
<linearGradient id="paint0_linear_10_6" x1="208.095" y1="21.8059" x2="39.2761" y2="721.702" gradientUnits="userSpaceOnUse">
<stop stop-color="white"/>
<stop offset="1" stop-color="white" stop-opacity="0.529412"/>
</linearGradient>
<linearGradient id="paint1_linear_10_6" x1="370.584" y1="313.019" x2="70.9296" y2="678.794" gradientUnits="userSpaceOnUse">
<stop stop-color="white"/>
<stop offset="1" stop-color="white"/>
</linearGradient>
</defs>
</svg>
